HIERARCHY
ROOT SpineBase
{
  OFFSET 0.000000 0.000000 0.000000
  CHANNELS 6 Xposition Yposition Zposition Zrotation Xrotation Yrotation
  JOINT SpineMid
  {
    OFFSET -0.000000 29.582806 0.000000
    CHANNELS 3 Zrotation Xrotation Yrotation
    JOINT SpineShoulder
    {
      OFFSET -0.113535 22.022339 -0.747724
      CHANNELS 3 Zrotation Xrotation Yrotation
      JOINT Neck
      {
        OFFSET -0.026986 7.295470 -0.500737
        CHANNELS 3 Zrotation Xrotation Yrotation
        JOINT Head
        {
          OFFSET -3.789967 10.268534 -0.227327
          CHANNELS 3 Zrotation Xrotation Yrotation
          End Site
          {
            OFFSET 0 0 0
          }
        }
      }
      JOINT ShoulderLeft
      {
        OFFSET -15.862172 -5.035454 6.545843
        CHANNELS 3 Zrotation Xrotation Yrotation
        JOINT ElbowLeft
        {
          OFFSET -2.199619 -24.955704 0.969260
          CHANNELS 3 Zrotation Xrotation Yrotation
          JOINT WristLeft
          {
            OFFSET 0.219470 -20.888371 -4.221732
            CHANNELS 3 Zrotation Xrotation Yrotation
            JOINT HandLeft
            {
              OFFSET -0.671225 -6.119392 -1.432033
              CHANNELS 3 Zrotation Xrotation Yrotation
              JOINT HandTipLeft
              {
                OFFSET -0.607879 -6.814404 -0.153791
                CHANNELS 3 Zrotation Xrotation Yrotation
                End Site
                {
                  OFFSET 0 0 0
                }
              }
              JOINT ThumbLeft
              {
                OFFSET 4.339315 -0.188629 -2.734892
                CHANNELS 3 Zrotation Xrotation Yrotation
                End Site
                {
                  OFFSET 0 0 0
                }
              }
            }
          }
        }
      }
      JOINT ShoulderRight
      {
        OFFSET 14.054241 -2.791385 -7.564637
        CHANNELS 3 Zrotation Xrotation Yrotation
        JOINT ElbowRight
        {
          OFFSET 5.867467 -23.954245 -0.522450
          CHANNELS 3 Zrotation Xrotation Yrotation
          JOINT WristRight
          {
            OFFSET -2.260473 -17.984436 -5.495780
            CHANNELS 3 Zrotation Xrotation Yrotation
            JOINT HandRight
            {
              OFFSET -3.067194 -6.740107 -1.471824
              CHANNELS 3 Zrotation Xrotation Yrotation
              JOINT HandTipRight
              {
                OFFSET -1.720395 -6.667346 -1.337267
                CHANNELS 3 Zrotation Xrotation Yrotation
                End Site
                {
                  OFFSET 0 0 0
                }
              }
              JOINT ThumbRight
              {
                OFFSET 1.817545 -2.879870 -1.688320
                CHANNELS 3 Zrotation Xrotation Yrotation
                End Site
                {
                  OFFSET 0 0 0
                }
              }
            }
          }
        }
      }
    }
  }
  JOINT HipLeft
  {
    OFFSET -5.318327 0.273551 -0.557941
    CHANNELS 3 Zrotation Xrotation Yrotation
    JOINT KneeLeft
    {
      OFFSET 2.814112 -28.105895 6.606178
      CHANNELS 3 Zrotation Xrotation Yrotation
      JOINT AnkleLeft
      {
        OFFSET 5.413770 -31.971893 5.182868
        CHANNELS 3 Zrotation Xrotation Yrotation
        JOINT FootLeft
        {
          OFFSET 2.801583 -7.071139 -6.302965
          CHANNELS 3 Zrotation Xrotation Yrotation
          End Site
          {
            OFFSET 0 0 0
          }
        }
      }
    }
  }
  JOINT HipRight
  {
    OFFSET 5.995821 1.350678 -5.998206
    CHANNELS 3 Zrotation Xrotation Yrotation
    JOINT KneeRight
    {
      OFFSET 6.922056 -27.289466 5.005501
      CHANNELS 3 Zrotation Xrotation Yrotation
      JOINT AnkleRight
      {
        OFFSET 3.195388 -32.538887 6.967517
        CHANNELS 3 Zrotation Xrotation Yrotation
        JOINT FootRight
        {
          OFFSET -4.736313 -6.638473 -2.734897
          CHANNELS 3 Zrotation Xrotation Yrotation
          End Site
          {
            OFFSET 0 0 0
          }
        }
      }
    }
  }
}
MOTION
Frames: 12
Frame Time: 0.033333
-35.846736 67.448073 347.767716 6.339126 0.237713 31.611408 -0.423792 0.070213 -31.413897 -0.382881 -0.440026 0.199340 8.802581 2.111664 0.276560 0.000000 0.000000 0.000000 -7.931781 44.046200 -3.582052 -6.137861 56.797606 10.455391 12.525443 7.509987 -5.274167 20.269354 12.553225 33.551633 0.000000 0.000000 0.000000 0.000000 0.000000 0.000000 -21.651646 58.285141 24.752708 -61.679526 -0.031654 -32.727734 0.078025 1.257310 -12.182114 13.882347 10.240027 4.916461 0.000000 0.000000 0.000000 0.000000 0.000000 0.000000 -5.658091 8.845996 -31.710261 0.808722 -5.516610 -0.323086 12.940507 2.077173 -8.357908 0.000000 0.000000 0.000000 -6.367187 4.601401 -31.480430 2.569795 -0.345435 0.363289 -1.728454 1.476787 -1.386488 0.000000 0.000000 0.000000
-35.914744 67.477243 347.680401 6.173644 0.387988 31.643316 -0.524584 0.095785 -31.461169 -0.509814 -0.367168 0.176143 8.808684 1.648803 0.274196 0.000000 0.000000 0.000000 -5.099054 39.260465 -4.006834 -16.164525 57.939556 12.797074 19.307984 11.007385 -0.355775 17.040209 12.730497 29.535915 0.000000 0.000000 0.000000 0.000000 0.000000 0.000000 -24.309310 57.324470 26.248388 -58.815494 0.125662 -31.477834 3.523765 0.090984 -12.807210 11.499593 12.410596 5.678248 0.000000 0.000000 0.000000 0.000000 0.000000 0.000000 -5.543859 8.552567 -31.752876 0.839295 -5.544337 -0.326061 12.756821 2.336754 -8.251407 0.000000 0.000000 0.000000 -6.389446 4.196379 -31.580280 2.537979 -0.130083 0.404493 -1.535600 1.610919 -1.559501 0.000000 0.000000 0.000000
-35.973462 67.519948 347.623410 6.017295 0.484535 31.642116 -0.616793 0.176375 -31.475077 -0.599174 -0.305921 0.155945 9.056294 1.150194 0.255726 0.000000 0.000000 0.000000 -2.559876 34.961482 -4.187457 -24.012478 58.753988 15.023154 24.364078 15.179828 2.568902 9.394168 11.098178 19.002436 0.000000 0.000000 0.000000 0.000000 0.000000 0.000000 -25.526860 56.432212 26.822625 -56.861999 0.090394 -30.491184 4.571524 -2.380853 -13.340553 9.296481 15.609994 6.160254 0.000000 0.000000 0.000000 0.000000 0.000000 0.000000 -5.394966 8.362834 -31.755292 0.863535 -5.636160 -0.337802 12.259785 2.371543 -7.938037 0.000000 0.000000 0.000000 -6.422437 3.833303 -31.648873 2.533945 0.200732 0.464095 -1.897524 1.875698 -1.667717 0.000000 0.000000 0.000000
-36.012243 67.560787 347.593598 5.882822 0.529199 31.593465 -0.688338 0.287380 -31.439423 -0.641210 -0.265805 0.141198 9.536661 0.700522 0.233471 0.000000 0.000000 0.000000 -0.432371 31.624687 -4.241063 -27.527815 60.293320 15.947104 23.738918 16.342075 1.948164 10.518393 10.640555 20.087552 0.000000 0.000000 0.000000 0.000000 0.000000 0.000000 -25.246655 55.749088 26.510054 -56.486515 -0.053370 -29.977621 6.119197 -2.027099 -13.193164 5.939363 16.851429 6.939679 0.000000 0.000000 0.000000 0.000000 0.000000 0.000000 -5.240399 8.253696 -31.704511 0.859098 -5.774119 -0.362920 12.118297 2.608158 -7.825403 0.000000 0.000000 0.000000 -6.222559 3.549439 -31.607239 2.285926 0.248573 0.432060 -1.995063 2.012772 -1.648134 0.000000 0.000000 0.000000
-36.036855 67.596800 347.583948 5.765350 0.534571 31.557747 -0.750099 0.395388 -31.413630 -0.630486 -0.252590 0.132697 10.142921 0.369949 0.212579 0.000000 0.000000 0.000000 1.322982 28.947359 -4.214836 -31.239722 61.757224 17.369263 22.323362 15.288539 1.388792 13.314073 9.572756 22.515646 0.000000 0.000000 0.000000 0.000000 0.000000 0.000000 -23.309669 55.485766 25.349644 -56.746504 -0.214641 -29.833519 6.445493 -1.426833 -12.966649 4.542494 17.270336 7.229174 0.000000 0.000000 0.000000 0.000000 0.000000 0.000000 -5.088414 8.199678 -31.664640 0.790377 -5.897184 -0.400929 12.360944 2.716773 -8.002081 0.000000 0.000000 0.000000 -6.071391 3.363533 -31.579445 2.197623 0.307608 0.431032 -1.923214 2.047063 -1.706607 0.000000 0.000000 0.000000
-36.068874 67.620678 347.584103 5.641368 0.517460 31.562349 -0.769523 0.458457 -31.424383 -0.570250 -0.279383 0.131511 10.346920 0.227597 0.189264 0.000000 0.000000 0.000000 2.543956 28.309714 -4.353465 -32.626855 61.533044 17.234079 21.282086 16.968779 0.559844 22.112820 1.032709 34.329600 0.000000 0.000000 0.000000 0.000000 0.000000 0.000000 -21.692582 54.952050 24.186356 -57.126119 -0.114325 -29.307999 5.434436 1.753491 -12.523413 7.190874 18.231770 7.860035 0.000000 0.000000 0.000000 0.000000 0.000000 0.000000 -4.897625 8.175426 -31.661526 0.657779 -6.042630 -0.458517 12.491481 2.586788 -8.113383 0.000000 0.000000 0.000000 -5.848111 3.205956 -31.576127 2.039211 0.351394 0.410233 -1.586624 1.987907 -1.812083 0.000000 0.000000 0.000000
-36.106561 67.634672 347.593190 5.548522 0.493925 31.431191 -0.775441 0.476394 -31.295795 -0.527418 -0.320774 0.132143 10.371787 0.152463 0.153341 0.000000 0.000000 0.000000 1.977534 28.832984 -4.287149 -30.375299 62.109611 16.603804 16.183784 15.972709 -2.373412 28.806851 5.490976 41.666745 0.000000 0.000000 0.000000 0.000000 0.000000 0.000000 -19.053060 54.439640 22.420568 -58.770604 0.317758 -28.834005 7.597108 5.327043 -12.003469 5.935357 13.825134 7.551743 0.000000 0.000000 0.000000 0.000000 0.000000 0.000000 -4.729652 8.132671 -31.515641 0.527942 -6.108976 -0.502408 12.952609 2.513530 -8.498696 0.000000 0.000000 0.000000 -5.734106 3.103107 -31.448206 2.016330 0.466982 0.422394 -1.197140 1.789934 -1.928535 0.000000 0.000000 0.000000
-36.119583 67.687415 347.601070 5.469247 0.458812 31.265448 -0.773519 0.490190 -31.131411 -0.512228 -0.355357 0.131317 10.511261 0.054401 0.113215 0.000000 0.000000 0.000000 2.036112 28.175443 -4.173714 -31.221414 63.443397 17.590952 14.637594 15.631002 -3.214283 26.843021 9.051719 39.210071 0.000000 0.000000 0.000000 0.000000 0.000000 0.000000 -16.107060 53.748754 20.452600 -59.768626 1.173014 -27.875625 4.886283 4.522623 -12.023889 8.085501 13.419025 7.222779 0.000000 0.000000 0.000000 0.000000 0.000000 0.000000 -4.631001 8.114123 -31.343428 0.447812 -6.147123 -0.529018 13.601610 2.523943 -9.006196 0.000000 0.000000 0.000000 -5.695572 3.058733 -31.294923 2.024649 0.616738 0.441715 -1.360273 1.347140 -1.632943 0.000000 0.000000 0.000000
-36.109799 67.769611 347.601508 5.398200 0.412804 31.089192 -0.761568 0.477812 -30.954417 -0.502627 -0.389515 0.131327 10.652328 0.026013 0.075921 0.000000 0.000000 0.000000 1.593802 28.473889 -4.101516 -30.855607 64.781628 18.235382 13.679533 14.030175 -3.698612 24.060920 9.155605 35.206443 0.000000 0.000000 0.000000 0.000000 0.000000 0.000000 -13.548520 53.124270 18.769006 -61.374184 2.350622 -26.932690 5.193491 6.175986 -11.856706 7.634560 9.387172 6.745773 0.000000 0.000000 0.000000 0.000000 0.000000 0.000000 -4.581413 8.112301 -31.167193 0.387604 -6.159809 -0.546575 14.038622 2.501621 -9.319035 0.000000 0.000000 0.000000 -5.825852 3.080530 -31.163089 2.204110 0.866110 0.507123 -0.024831 1.395634 -2.369908 0.000000 0.000000 0.000000
-36.057606 67.804082 347.601980 5.362036 0.369814 30.832259 -0.763247 0.479760 -30.696721 -0.491005 -0.405407 0.131445 10.852697 -0.050945 0.040162 0.000000 0.000000 0.000000 1.155142 28.819026 -4.041530 -30.644198 64.738448 18.471798 15.777741 16.718753 -2.766846 19.992026 7.997038 32.258389 0.000000 0.000000 0.000000 0.000000 0.000000 0.000000 -11.114875 52.587646 17.228741 -62.642379 3.518446 -26.047869 3.142123 6.945216 -11.751935 8.964032 8.139548 6.720029 0.000000 0.000000 0.000000 0.000000 0.000000 0.000000 -4.654441 8.120206 -30.921669 0.386506 -6.143011 -0.545056 14.105685 2.341904 -9.356769 0.000000 0.000000 0.000000 -5.997882 3.165271 -30.943224 2.380473 0.989648 0.553479 1.578804 1.176938 -2.950277 0.000000 0.000000 0.000000
-36.002085 67.856598 347.606030 5.318152 0.311104 30.560402 -0.730077 0.487460 -30.423650 -0.485535 -0.435980 0.132242 11.112202 -0.157298 -0.004703 0.000000 0.000000 0.000000 0.716620 28.938785 -3.949748 -30.078325 66.160922 19.008657 18.274379 16.749536 -1.341720 10.055849 5.039973 19.259661 0.000000 0.000000 0.000000 0.000000 0.000000 0.000000 -9.793883 52.290140 16.399515 -63.049795 4.356706 -25.408744 0.833137 4.520926 -12.204265 7.996949 9.675936 6.703423 0.000000 0.000000 0.000000 0.000000 0.000000 0.000000 -4.727104 8.152778 -30.662763 0.423034 -6.138254 -0.535153 14.096591 2.284233 -9.313877 0.000000 0.000000 0.000000 -6.099791 3.372534 -30.677541 2.623115 0.911729 0.577774 2.389651 1.112164 -3.278647 0.000000 0.000000 0.000000
-35.977498 67.980613 347.617058 5.242451 0.248514 30.373097 -0.657260 0.476482 -30.234783 -0.474432 -0.461104 0.133758 11.234761 -0.176248 -0.031848 0.000000 0.000000 0.000000 -0.059382 29.831254 -3.888584 -28.934678 67.990079 19.603144 21.500413 15.082299 1.083123 3.314781 0.446601 11.376529 0.000000 0.000000 0.000000 0.000000 0.000000 0.000000 -9.588539 52.224904 16.250636 -62.468342 4.949931 -24.967139 -0.284123 1.314175 -12.978604 5.096662 10.459643 6.551313 0.000000 0.000000 0.000000 0.000000 0.000000 0.000000 -4.712955 8.219004 -30.483733 0.456505 -6.216362 -0.537982 13.814192 2.211786 -9.069426 0.000000 0.000000 0.000000 -6.150033 3.593770 -30.489610 2.881423 0.839179 0.603095 2.335083 1.145959 -3.339013 0.000000 0.000000 0.000000
